<svg width="21" height="24" fill="none" xmlns="http://www.w3.org/2000/svg"><g clip-path="url(#clip0_2_192)" fill="#fff"><path d="M10.521 9.302a.366.366 0 01-.364-.37l.034-6.146a.374.374 0 01.367-.366.365.365 0 01.365.37l-.034 6.146a.369.369 0 01-.368.366zm-.022 4.465a1.756 1.756 0 01-1.627-1.09 1.774 1.774 0 01.382-1.927A1.758 1.758 0 0112.259 12c0 .469-.186.918-.516 1.249a1.76 1.76 0 01-1.244.518zm0-2.796a1.026 1.026 0 00-.95.637 1.035 1.035 0 00.75 1.407 1.024 1.024 0 001.054-.438 1.035 1.035 0 00-.854-1.609v.003z"/><path d="M7.445 17.798a.364.364 0 01-.35-.256.369.369 0 01-.014-.154l.422-3.636-3.349-1.35a.366.366 0 01-.17-.54.366.366 0 01.161-.137l3.347-1.456-.507-3.586a.368.368 0 01.38-.42.359.359 0 01.2.073l2.93 2.18 2.838-2.235a.365.365 0 01.59.33l-.421 3.637 3.345 1.352a.366.366 0 01.17.54.368.368 0 01-.16.138l-3.347 1.455.506 3.587a.368.368 0 01-.38.419.365.365 0 01-.2-.072l-2.927-2.183L7.67 17.72a.365.365 0 01-.225.078zm-2.207-5.75l2.794 1.126a.366.366 0 01.227.383L7.91 16.6l2.368-1.864a.366.366 0 01.445-.006l2.448 1.823-.422-2.991a.37.37 0 01.216-.39l2.797-1.217-2.793-1.126a.366.366 0 01-.227-.383l.348-3.04-2.368 1.865a.366.366 0 01-.444.005L7.83 7.452l.422 2.992a.37.37 0 01-.217.39l-2.797 1.214zm5.271-6.228a.363.363 0 01-.215-.07L8.606 4.528a.368.368 0 01.43-.593L10.509 5l1.519-1.115a.365.365 0 01.589.351.368.368 0 01-.157.242l-1.734 1.27a.372.372 0 01-.217.073z"/><path d="M7.865 10.815a.365.365 0 01-.184-.05L2.395 7.662a.368.368 0 01.37-.634l5.285 3.101a.367.367 0 01-.185.686z"/><path d="M2.958 9.937a.365.365 0 01-.359-.29.369.369 0 01.208-.413l1.657-.745-.2-1.877a.37.37 0 01.324-.406.365.365 0 01.404.327l.23 2.143a.37.37 0 01-.214.376l-1.9.854a.36.36 0 01-.15.031zm-.434 6.987a.366.366 0 01-.338-.51.367.367 0 01.157-.177l5.317-3.044a.365.365 0 01.533.416.368.368 0 01-.17.223l-5.318 3.044a.362.362 0 01-.181.048z"/><path d="M4.632 17.708a.3.3 0 01-.174-.042.365.365 0 01-.19-.362l.185-1.812-1.72-.762a.367.367 0 01.296-.673l1.964.872a.365.365 0 01.216.373l-.213 2.079a.367.367 0 01-.364.327zm5.81 3.871a.364.364 0 01-.337-.229.37.37 0 01-.027-.14l.033-6.147a.367.367 0 01.367-.366.366.366 0 01.364.37l-.034 6.146a.368.368 0 01-.366.366z"/><path d="M8.753 20.186a.364.364 0 01-.35-.253.368.368 0 01.133-.412l1.734-1.27a.366.366 0 01.431 0l1.688 1.224a.367.367 0 11-.43.593L10.49 19l-1.52 1.115a.365.365 0 01-.217.07zM10.555 0a.876.876 0 00-.81.547.885.885 0 00.643 1.2.875.875 0 00.901-.375.885.885 0 00-.397-1.306.877.877 0 00-.337-.066zm-9.18 5.628a.876.876 0 00-1.336.64.884.884 0 00.458.885.865.865 0 00.666.088.877.877 0 00.644-.736.884.884 0 00-.432-.879v.002zm-.269 11.03a.876.876 0 00-1.015.462.885.885 0 00.253 1.09.877.877 0 001.401-.556.885.885 0 00-.639-.996zm9.336 5.578a.876.876 0 00-.812.545.885.885 0 00.641 1.202.875.875 0 00.902-.376.885.885 0 00-.11-1.113.877.877 0 00-.62-.258z"/></g><g clip-path="url(#clip1_2_192)" fill="#F8B5B5"><path d="M10.521 9.302a.366.366 0 01-.364-.37l.034-6.146a.374.374 0 01.367-.366.365.365 0 01.365.37l-.034 6.146a.369.369 0 01-.368.366zm-.022 4.465a1.756 1.756 0 01-1.627-1.09 1.774 1.774 0 01.382-1.927A1.758 1.758 0 0112.259 12c0 .469-.186.918-.516 1.249a1.76 1.76 0 01-1.244.518zm0-2.796a1.026 1.026 0 00-.95.637 1.035 1.035 0 00.75 1.407 1.024 1.024 0 001.054-.438 1.035 1.035 0 00-.854-1.609v.003z"/><path d="M7.445 17.798a.364.364 0 01-.35-.256.369.369 0 01-.014-.154l.422-3.636-3.349-1.35a.366.366 0 01-.17-.54.366.366 0 01.161-.137l3.347-1.456-.507-3.586a.368.368 0 01.38-.42.359.359 0 01.2.073l2.93 2.18 2.838-2.235a.365.365 0 01.59.33l-.421 3.637 3.345 1.352a.366.366 0 01.17.54.368.368 0 01-.16.138l-3.347 1.455.506 3.587a.368.368 0 01-.38.419.365.365 0 01-.2-.072l-2.927-2.183L7.67 17.72a.365.365 0 01-.225.078zm-2.207-5.75l2.794 1.126a.366.366 0 01.227.383L7.91 16.6l2.368-1.864a.366.366 0 01.445-.006l2.448 1.823-.422-2.991a.37.37 0 01.216-.39l2.797-1.217-2.793-1.126a.366.366 0 01-.227-.383l.348-3.04-2.368 1.865a.366.366 0 01-.444.005L7.83 7.452l.422 2.992a.37.37 0 01-.217.39l-2.797 1.214zm5.271-6.228a.363.363 0 01-.215-.07L8.606 4.528a.368.368 0 01.43-.593L10.509 5l1.519-1.115a.365.365 0 01.589.351.368.368 0 01-.157.242l-1.734 1.27a.372.372 0 01-.217.073z"/><path d="M10.442 21.579a.364.364 0 01-.337-.229.37.37 0 01-.027-.14l.033-6.147a.367.367 0 01.367-.366.366.366 0 01.364.37l-.034 6.146a.368.368 0 01-.366.366z"/><path d="M8.753 20.186a.364.364 0 01-.35-.253.368.368 0 01.133-.412l1.734-1.27a.366.366 0 01.431 0l1.688 1.224a.367.367 0 11-.43.593L10.49 19l-1.52 1.115a.365.365 0 01-.217.07zm9.664-3.164a.36.36 0 01-.185-.05l-5.285-3.102a.367.367 0 01-.132-.503.367.367 0 01.502-.133l5.285 3.103a.367.367 0 01-.185.685z"/><path d="M16.37 17.795a.366.366 0 01-.364-.329l-.23-2.143a.369.369 0 01.215-.375l1.9-.854a.365.365 0 01.479.188.37.37 0 01-.18.483l-1.657.745.202 1.877a.37.37 0 01-.188.363.366.366 0 01-.177.045zm-3.215-6.941a.365.365 0 01-.354-.273.37.37 0 01.172-.414l5.317-3.044a.365.365 0 01.499.138.37.37 0 01-.136.501l-5.317 3.044a.362.362 0 01-.181.049zM10.555 0a.876.876 0 00-.81.547.885.885 0 00.643 1.2.875.875 0 00.901-.375.885.885 0 00-.397-1.306.877.877 0 00-.337-.066zm-.113 22.236a.876.876 0 00-.812.545.885.885 0 00.641 1.202.875.875 0 00.902-.376.885.885 0 00-.11-1.113.877.877 0 00-.62-.258zM20.5 16.845a.875.875 0 00-1.199.322.885.885 0 00.478 1.276.875.875 0 00.943-.253.883.883 0 00-.221-1.345zm-.609-9.504a.874.874 0 00.666-.088.88.88 0 00.398-1.044.88.88 0 00-.943-.596.876.876 0 00-.765.813.883.883 0 00.644.912v.003z"/><path d="M18.117 9.976a.364.364 0 01-.148-.031l-1.964-.872a.368.368 0 01-.217-.374L16 6.621a.369.369 0 01.4-.317.366.366 0 01.329.392l-.186 1.813 1.72.762a.367.367 0 01-.147.704v.001z"/></g><defs><clipPath id="clip0_2_192"><path fill="#fff" d="M0 0h11v24H0z"/></clipPath><clipPath id="clip1_2_192"><path fill="#fff" transform="translate(10)" d="M0 0h11v24H0z"/></clipPath></defs></svg>