<svg width="21" height="24" viewBox="0 0 21 24" fill="none" xmlns="http://www.w3.org/2000/svg">
<g clip-path="url(#clip0_2_192)">
<path d="M10.5213 9.30236C10.4241 9.30169 10.3311 9.26233 10.2628 9.19293C10.1944 9.12352 10.1563 9.02973 10.1567 8.93213L10.1905 2.78641C10.1925 2.68937 10.232 2.59692 10.3007 2.5286C10.3693 2.46029 10.4618 2.42149 10.5585 2.42041C10.6066 2.42063 10.6542 2.43036 10.6985 2.44905C10.7429 2.46773 10.7831 2.495 10.817 2.5293C10.8508 2.5636 10.8776 2.60426 10.8958 2.64896C10.914 2.69365 10.9233 2.74151 10.9231 2.7898L10.8893 8.93636C10.8891 8.98465 10.8794 9.03242 10.8608 9.07695C10.8422 9.12147 10.815 9.16188 10.7808 9.19587C10.7467 9.22985 10.7062 9.25675 10.6616 9.27502C10.6171 9.2933 10.5694 9.30259 10.5213 9.30236Z" fill="white"/>
<path d="M10.4987 13.7673C10.1505 13.7673 9.81011 13.6636 9.52059 13.4694C9.23108 13.2752 9.00542 12.9992 8.87217 12.6763C8.73892 12.3533 8.70406 11.998 8.77199 11.6552C8.83992 11.3124 9.00759 10.9975 9.25381 10.7503C9.50002 10.5031 9.81372 10.3348 10.1552 10.2666C10.4967 10.1984 10.8507 10.2334 11.1724 10.3672C11.4941 10.501 11.7691 10.7275 11.9625 11.0181C12.156 11.3087 12.2592 11.6504 12.2592 12C12.2586 12.4685 12.0729 12.9176 11.7428 13.2489C11.4128 13.5802 10.9654 13.7666 10.4987 13.7673V13.7673ZM10.4987 10.9714C10.2954 10.9714 10.0966 11.032 9.92759 11.1453C9.75854 11.2587 9.62678 11.4199 9.54898 11.6085C9.47117 11.797 9.45082 12.0045 9.49048 12.2047C9.53014 12.4048 9.62805 12.5887 9.77181 12.733C9.91558 12.8773 10.0987 12.9756 10.2981 13.0154C10.4976 13.0553 10.7042 13.0348 10.8921 12.9567C11.0799 12.8786 11.2405 12.7463 11.3534 12.5767C11.4664 12.407 11.5267 12.2074 11.5267 12.0034C11.527 11.8676 11.5006 11.7331 11.4491 11.6075C11.3976 11.482 11.322 11.3679 11.2265 11.2717C11.131 11.1756 11.0176 11.0993 10.8927 11.0472C10.7678 10.995 10.6339 10.9682 10.4987 10.9681V10.9714Z" fill="white"/>
<path d="M7.44509 17.7984C7.39344 17.7984 7.34237 17.7875 7.29524 17.7662C7.24811 17.745 7.20599 17.714 7.17164 17.6753C7.13729 17.6366 7.11148 17.591 7.09592 17.5415C7.08036 17.4921 7.07539 17.4399 7.08134 17.3884L7.50333 13.7521L4.15444 12.4025C4.0876 12.3754 4.03023 12.329 3.98952 12.2693C3.94881 12.2096 3.92656 12.1391 3.92557 12.0667C3.92458 11.9944 3.94488 11.9233 3.98395 11.8625C4.02301 11.8016 4.07908 11.7537 4.14515 11.7247L7.49151 10.2692L6.98513 6.68295C6.9745 6.61102 6.98541 6.53755 7.01646 6.47186C7.04752 6.40617 7.09731 6.35123 7.15954 6.31401C7.22176 6.27678 7.29359 6.25896 7.36593 6.26281C7.43826 6.26665 7.50782 6.29198 7.56578 6.33559L10.4944 8.51633L13.3327 6.28052C13.3895 6.23547 13.4584 6.20835 13.5306 6.20258C13.6028 6.19681 13.675 6.21265 13.7383 6.2481C13.8015 6.28355 13.8528 6.33702 13.8858 6.40175C13.9187 6.46648 13.9319 6.53957 13.9234 6.61178L13.5015 10.248L16.847 11.6002C16.9138 11.6273 16.9712 11.6737 17.0119 11.7334C17.0526 11.7932 17.0748 11.8636 17.0758 11.936C17.0768 12.0084 17.0565 12.0794 17.0175 12.1403C16.9784 12.2011 16.9223 12.249 16.8563 12.278L13.5099 13.7335L14.0163 17.3198C14.0265 17.3916 14.0153 17.4648 13.9841 17.5302C13.953 17.5957 13.9032 17.6504 13.8412 17.6875C13.7791 17.7247 13.7075 17.7425 13.6353 17.7389C13.5632 17.7353 13.4937 17.7103 13.4356 17.6671L10.5087 15.4838L7.67043 17.7197C7.60622 17.7705 7.52687 17.7982 7.44509 17.7984V17.7984ZM5.2381 12.0484L8.03166 13.1743C8.10613 13.2043 8.1687 13.258 8.20973 13.3272C8.25076 13.3964 8.26797 13.4773 8.25869 13.5573L7.91013 16.5988L10.2783 14.7349C10.3415 14.6851 10.4193 14.6575 10.4997 14.6564C10.5801 14.6553 10.6586 14.6808 10.7231 14.729L13.1706 16.5522L12.7486 13.5607C12.7375 13.4808 12.7526 13.3996 12.7918 13.3292C12.831 13.2588 12.892 13.2033 12.9655 13.1709L15.7625 11.9543L12.9689 10.8284C12.8944 10.7984 12.8319 10.7447 12.7908 10.6755C12.7498 10.6063 12.7326 10.5254 12.7419 10.4454L13.0904 7.40562L10.7223 9.2695C10.659 9.31935 10.5812 9.34693 10.5009 9.348C10.4205 9.34908 10.342 9.32357 10.2775 9.27543L7.82995 7.45222L8.25193 10.4437C8.26309 10.5236 8.24793 10.6049 8.20877 10.6752C8.16961 10.7456 8.10859 10.8012 8.03503 10.8335L5.2381 12.0484Z" fill="white"/>
<path d="M10.5087 5.82032C10.4318 5.82046 10.3567 5.79614 10.2944 5.75085L8.60642 4.52662C8.53608 4.46658 8.49093 4.38208 8.48 4.29005C8.46906 4.19802 8.49316 4.10523 8.54746 4.03027C8.60176 3.95531 8.68226 3.90369 8.77284 3.88576C8.86343 3.86783 8.95742 3.88491 9.036 3.93357L10.5087 4.99852L12.0279 3.88358C12.0665 3.8527 12.1109 3.82997 12.1585 3.81676C12.2061 3.80355 12.2559 3.80014 12.3048 3.80673C12.3537 3.81331 12.4008 3.82976 12.4433 3.85509C12.4857 3.88041 12.5226 3.91408 12.5518 3.95409C12.5809 3.99409 12.6017 4.0396 12.6129 4.08787C12.6241 4.13614 12.6254 4.18619 12.6169 4.235C12.6083 4.28381 12.59 4.33037 12.563 4.3719C12.5361 4.41342 12.501 4.44905 12.46 4.47663L10.7265 5.74746C10.6633 5.79412 10.5871 5.81961 10.5087 5.82032V5.82032Z" fill="white"/>
<path d="M7.86538 10.8146C7.80044 10.8147 7.73665 10.7974 7.68054 10.7646L2.39473 7.6621C2.3109 7.61278 2.25003 7.53205 2.22549 7.43767C2.20096 7.3433 2.21478 7.243 2.26391 7.15885C2.31304 7.0747 2.39346 7.01359 2.48748 6.98897C2.5815 6.96434 2.68141 6.97821 2.76523 7.02753L8.05021 10.1292C8.1198 10.1699 8.17409 10.2325 8.20468 10.3073C8.23526 10.3821 8.24043 10.4649 8.21938 10.543C8.19834 10.621 8.15225 10.6899 8.08825 10.739C8.02426 10.7881 7.94592 10.8147 7.86538 10.8146V10.8146Z" fill="white"/>
<path d="M2.95769 9.93706C2.87383 9.93714 2.79248 9.90833 2.72723 9.85544C2.66198 9.80255 2.61679 9.72879 2.59921 9.64647C2.58162 9.56416 2.59271 9.47828 2.63061 9.40318C2.66852 9.32809 2.73094 9.26832 2.80746 9.23387L4.46419 8.48917L4.26332 6.61173C4.25802 6.56365 4.26223 6.515 4.27569 6.46855C4.28916 6.4221 4.31163 6.37878 4.3418 6.34107C4.37197 6.30335 4.40927 6.27198 4.45154 6.24876C4.49381 6.22553 4.54023 6.21091 4.58814 6.20573C4.63605 6.20055 4.68451 6.20491 4.73074 6.21856C4.77697 6.2322 4.82006 6.25488 4.85755 6.28527C4.89504 6.31567 4.92618 6.35319 4.9492 6.39569C4.97221 6.43819 4.98665 6.48483 4.99167 6.53294L5.22208 8.6764C5.23019 8.75364 5.21384 8.83149 5.17536 8.89886C5.13687 8.96624 5.07821 9.01973 5.00771 9.05172L3.10707 9.90572C3.06007 9.92673 3.00914 9.93741 2.95769 9.93706Z" fill="white"/>
<path d="M2.524 16.9239C2.4432 16.9239 2.36467 16.897 2.30063 16.8476C2.2366 16.7981 2.19065 16.7288 2.16994 16.6504C2.14924 16.572 2.15494 16.4889 2.18616 16.4141C2.21737 16.3393 2.27236 16.277 2.34254 16.2368L7.65959 13.1927C7.74395 13.1448 7.8438 13.1324 7.93726 13.1582C8.03072 13.1841 8.11016 13.246 8.15818 13.3306C8.2062 13.4151 8.21889 13.5153 8.19346 13.6092C8.16802 13.7031 8.10654 13.783 8.02249 13.8315L2.70545 16.8756C2.65023 16.9074 2.58766 16.924 2.524 16.9239V16.9239Z" fill="white"/>
<path d="M4.63229 17.7077C4.61964 17.7085 4.60696 17.7085 4.59431 17.7077C4.54645 17.7028 4.50002 17.6885 4.45768 17.6656C4.41535 17.6427 4.37793 17.6116 4.34759 17.5741C4.31724 17.5367 4.29456 17.4936 4.28085 17.4473C4.26714 17.401 4.26267 17.3524 4.26769 17.3044L4.45337 15.4922L2.7325 14.7297C2.64364 14.6903 2.57402 14.617 2.53896 14.5261C2.5039 14.4351 2.50628 14.3339 2.54556 14.2447C2.58484 14.1555 2.65782 14.0856 2.74843 14.0504C2.83905 14.0152 2.93987 14.0176 3.02874 14.057L4.99267 14.9288C5.06351 14.96 5.12263 15.0131 5.16147 15.0802C5.20031 15.1474 5.21686 15.2252 5.20873 15.3024L4.99604 17.3807C4.98626 17.4706 4.94371 17.5538 4.87657 17.6141C4.80942 17.6745 4.72242 17.7078 4.63229 17.7077V17.7077Z" fill="white"/>
<path d="M10.4421 21.5786C10.394 21.5784 10.3464 21.5687 10.3021 21.55C10.2577 21.5313 10.2175 21.504 10.1836 21.4697C10.1497 21.4354 10.123 21.3948 10.1048 21.3501C10.0866 21.3054 10.0773 21.2575 10.0775 21.2092L10.1113 15.0627C10.1117 14.9655 10.1505 14.8725 10.2192 14.8041C10.2879 14.7356 10.3808 14.6973 10.4776 14.6975V14.6975C10.5257 14.6977 10.5732 14.7075 10.6176 14.7261C10.662 14.7448 10.7022 14.7721 10.7361 14.8064C10.7699 14.8407 10.7967 14.8814 10.8149 14.9261C10.8331 14.9708 10.8424 15.0186 10.8422 15.0669L10.8084 21.2126C10.808 21.3098 10.7692 21.4029 10.7005 21.4715C10.6319 21.5401 10.539 21.5786 10.4421 21.5786Z" fill="white"/>
<path d="M8.75253 20.1857C8.67509 20.1862 8.59951 20.1619 8.5367 20.1164C8.47389 20.071 8.4271 20.0067 8.40306 19.9328C8.37902 19.8589 8.37899 19.7792 8.40297 19.7053C8.42695 19.6314 8.47369 19.567 8.53647 19.5215L10.27 18.2507C10.3327 18.205 10.4082 18.1804 10.4856 18.1804C10.5631 18.1804 10.6386 18.205 10.7013 18.2507L12.3892 19.4749C12.4322 19.5015 12.4691 19.5367 12.4979 19.5783C12.5266 19.6199 12.5465 19.667 12.5563 19.7167C12.566 19.7664 12.5655 19.8176 12.5546 19.867C12.5437 19.9165 12.5228 19.9631 12.4932 20.0041C12.4635 20.0451 12.4257 20.0794 12.3822 20.105C12.3387 20.1307 12.2904 20.147 12.2403 20.153C12.1902 20.159 12.1394 20.1545 12.0911 20.1399C12.0428 20.1253 11.9981 20.1008 11.9596 20.068L10.4894 19.0005L8.97027 20.1154C8.90703 20.1616 8.83072 20.1862 8.75253 20.1857V20.1857Z" fill="white"/>
<path d="M10.5551 3.66035e-06C10.3815 0.00067336 10.212 0.0529676 10.0679 0.150284C9.92391 0.247601 9.81182 0.385576 9.74584 0.54679C9.67986 0.708004 9.66295 0.885228 9.69723 1.05609C9.73151 1.22694 9.81545 1.38378 9.93845 1.50678C10.0615 1.62979 10.218 1.71345 10.3883 1.7472C10.5587 1.78096 10.7352 1.7633 10.8955 1.69645C11.0558 1.6296 11.1929 1.51655 11.2893 1.37159C11.3856 1.22663 11.4371 1.05625 11.4371 0.881958C11.437 0.765884 11.4141 0.65097 11.3697 0.543796C11.3253 0.436621 11.2602 0.33929 11.1783 0.257371C11.0964 0.175451 10.9992 0.110553 10.8923 0.066391C10.7853 0.0222287 10.6708 -0.000330579 10.5551 3.66035e-06Z" fill="white"/>
<path d="M1.37451 5.62817C1.27459 5.56567 1.16317 5.52399 1.04688 5.5056C0.930584 5.48722 0.811795 5.4925 0.697579 5.52115C0.583363 5.54979 0.476054 5.60121 0.382039 5.67234C0.288023 5.74347 0.209223 5.83285 0.150327 5.93518C0.0914306 6.03751 0.0536435 6.15068 0.0392123 6.26797C0.024781 6.38526 0.0340022 6.50426 0.0663257 6.6179C0.0986492 6.73154 0.153414 6.83749 0.227363 6.92944C0.301312 7.0214 0.392934 7.09748 0.496774 7.15316C0.629471 7.23085 0.780336 7.27178 0.933953 7.27177C1.01119 7.27169 1.08809 7.26144 1.16267 7.24127C1.33055 7.1963 1.48135 7.10233 1.59597 6.97126C1.7106 6.84019 1.7839 6.67791 1.80659 6.50499C1.82927 6.33207 1.80032 6.15628 1.72341 5.99989C1.64649 5.84349 1.52506 5.71354 1.37451 5.62647V5.62817Z" fill="white"/>
<path d="M1.10606 16.658C0.909721 16.6052 0.701211 16.6223 0.516055 16.7065C0.330899 16.7907 0.180553 16.9367 0.0906366 17.1197C0.000720064 17.3027 -0.0232056 17.5114 0.0229393 17.7101C0.0690843 17.9088 0.182444 18.0853 0.3437 18.2096C0.504957 18.3338 0.704136 18.398 0.907295 18.3914C1.11045 18.3847 1.30502 18.3075 1.45785 18.173C1.61068 18.0384 1.71231 17.8549 1.74542 17.6536C1.77853 17.4522 1.74108 17.2456 1.63945 17.0689C1.58192 16.9685 1.50517 16.8805 1.41363 16.81C1.32209 16.7395 1.21756 16.6878 1.10606 16.658V16.658Z" fill="white"/>
<path d="M10.4422 22.2361C10.2684 22.2361 10.0985 22.2878 9.95398 22.3848C9.80948 22.4817 9.69687 22.6195 9.6304 22.7807C9.56392 22.9419 9.54657 23.1193 9.58054 23.2904C9.61451 23.4615 9.69827 23.6187 9.82123 23.742C9.94418 23.8653 10.1008 23.9492 10.2713 23.9831C10.4418 24.0171 10.6185 23.9995 10.779 23.9326C10.9395 23.8657 11.0767 23.7526 11.1731 23.6074C11.2695 23.4623 11.3209 23.2917 11.3208 23.1172C11.3205 22.8834 11.2279 22.6593 11.0631 22.4941C10.8984 22.3289 10.675 22.2361 10.4422 22.2361Z" fill="white"/>
</g>
<g clip-path="url(#clip1_2_192)">
<path d="M10.5213 9.30236C10.4241 9.30169 10.3311 9.26233 10.2628 9.19293C10.1944 9.12352 10.1563 9.02973 10.1567 8.93213L10.1905 2.78641C10.1925 2.68937 10.232 2.59692 10.3007 2.5286C10.3693 2.46029 10.4618 2.42149 10.5585 2.42041C10.6066 2.42063 10.6542 2.43036 10.6985 2.44905C10.7429 2.46773 10.7831 2.495 10.817 2.5293C10.8508 2.5636 10.8776 2.60426 10.8958 2.64896C10.914 2.69365 10.9233 2.74151 10.9231 2.7898L10.8893 8.93636C10.8891 8.98465 10.8794 9.03242 10.8608 9.07695C10.8422 9.12147 10.815 9.16188 10.7808 9.19587C10.7467 9.22985 10.7062 9.25675 10.6616 9.27502C10.6171 9.2933 10.5694 9.30259 10.5213 9.30236Z" fill="#F8B5B5"/>
<path d="M10.4987 13.7673C10.1505 13.7673 9.81011 13.6636 9.52059 13.4694C9.23108 13.2752 9.00542 12.9992 8.87217 12.6763C8.73892 12.3533 8.70406 11.998 8.77199 11.6552C8.83992 11.3124 9.00759 10.9975 9.25381 10.7503C9.50002 10.5031 9.81372 10.3348 10.1552 10.2666C10.4967 10.1984 10.8507 10.2334 11.1724 10.3672C11.4941 10.501 11.7691 10.7275 11.9625 11.0181C12.156 11.3087 12.2592 11.6504 12.2592 12C12.2586 12.4685 12.0729 12.9176 11.7428 13.2489C11.4128 13.5802 10.9654 13.7666 10.4987 13.7673V13.7673ZM10.4987 10.9714C10.2954 10.9714 10.0966 11.032 9.92759 11.1453C9.75854 11.2587 9.62678 11.4199 9.54898 11.6085C9.47117 11.797 9.45082 12.0045 9.49048 12.2047C9.53014 12.4048 9.62805 12.5887 9.77181 12.733C9.91558 12.8773 10.0987 12.9756 10.2981 13.0154C10.4976 13.0553 10.7042 13.0348 10.8921 12.9567C11.0799 12.8786 11.2405 12.7463 11.3534 12.5767C11.4664 12.407 11.5267 12.2074 11.5267 12.0034C11.527 11.8676 11.5006 11.7331 11.4491 11.6075C11.3976 11.482 11.322 11.3679 11.2265 11.2717C11.131 11.1756 11.0176 11.0993 10.8927 11.0472C10.7678 10.995 10.6339 10.9682 10.4987 10.9681V10.9714Z" fill="#F8B5B5"/>
<path d="M7.44509 17.7984C7.39344 17.7984 7.34237 17.7875 7.29524 17.7662C7.24811 17.745 7.20599 17.714 7.17164 17.6753C7.13729 17.6366 7.11148 17.591 7.09592 17.5415C7.08036 17.4921 7.07539 17.4399 7.08134 17.3884L7.50333 13.7521L4.15444 12.4025C4.0876 12.3754 4.03023 12.329 3.98952 12.2693C3.94881 12.2096 3.92656 12.1391 3.92557 12.0667C3.92458 11.9944 3.94488 11.9233 3.98395 11.8625C4.02301 11.8016 4.07908 11.7537 4.14515 11.7247L7.49151 10.2692L6.98513 6.68295C6.9745 6.61102 6.98541 6.53755 7.01646 6.47186C7.04752 6.40617 7.09731 6.35123 7.15954 6.31401C7.22176 6.27678 7.29359 6.25896 7.36593 6.26281C7.43826 6.26665 7.50782 6.29198 7.56578 6.33559L10.4944 8.51633L13.3327 6.28052C13.3895 6.23547 13.4584 6.20835 13.5306 6.20258C13.6028 6.19681 13.675 6.21265 13.7383 6.2481C13.8015 6.28355 13.8528 6.33702 13.8858 6.40175C13.9187 6.46648 13.9319 6.53957 13.9234 6.61178L13.5015 10.248L16.847 11.6002C16.9138 11.6273 16.9712 11.6737 17.0119 11.7334C17.0526 11.7932 17.0748 11.8636 17.0758 11.936C17.0768 12.0084 17.0565 12.0794 17.0175 12.1403C16.9784 12.2011 16.9223 12.249 16.8563 12.278L13.5099 13.7335L14.0163 17.3198C14.0265 17.3916 14.0153 17.4648 13.9841 17.5302C13.953 17.5957 13.9032 17.6504 13.8412 17.6875C13.7791 17.7247 13.7075 17.7425 13.6353 17.7389C13.5632 17.7353 13.4937 17.7103 13.4356 17.6671L10.5087 15.4838L7.67043 17.7197C7.60622 17.7705 7.52687 17.7982 7.44509 17.7984V17.7984ZM5.2381 12.0484L8.03166 13.1743C8.10613 13.2043 8.1687 13.258 8.20973 13.3272C8.25076 13.3964 8.26797 13.4773 8.25869 13.5573L7.91013 16.5988L10.2783 14.7349C10.3415 14.6851 10.4193 14.6575 10.4997 14.6564C10.5801 14.6553 10.6586 14.6808 10.7231 14.729L13.1706 16.5522L12.7486 13.5607C12.7375 13.4808 12.7526 13.3996 12.7918 13.3292C12.831 13.2588 12.892 13.2033 12.9655 13.1709L15.7625 11.9543L12.9689 10.8284C12.8944 10.7984 12.8319 10.7447 12.7908 10.6755C12.7498 10.6063 12.7326 10.5254 12.7419 10.4454L13.0904 7.40562L10.7223 9.2695C10.659 9.31935 10.5812 9.34693 10.5009 9.348C10.4205 9.34908 10.342 9.32357 10.2775 9.27543L7.82995 7.45222L8.25193 10.4437C8.26309 10.5236 8.24793 10.6049 8.20877 10.6752C8.16961 10.7456 8.10859 10.8012 8.03503 10.8335L5.2381 12.0484Z" fill="#F8B5B5"/>
<path d="M10.5087 5.82032C10.4318 5.82046 10.3567 5.79614 10.2944 5.75085L8.60642 4.52662C8.53608 4.46658 8.49093 4.38208 8.48 4.29005C8.46906 4.19802 8.49316 4.10523 8.54746 4.03027C8.60176 3.95531 8.68226 3.90369 8.77284 3.88576C8.86343 3.86783 8.95742 3.88491 9.036 3.93357L10.5087 4.99852L12.0279 3.88358C12.0665 3.8527 12.1109 3.82997 12.1585 3.81676C12.2061 3.80355 12.2559 3.80014 12.3048 3.80673C12.3537 3.81331 12.4008 3.82976 12.4433 3.85509C12.4857 3.88041 12.5226 3.91408 12.5518 3.95409C12.5809 3.99409 12.6017 4.0396 12.6129 4.08787C12.6241 4.13614 12.6254 4.18619 12.6169 4.235C12.6083 4.28381 12.59 4.33037 12.563 4.3719C12.5361 4.41342 12.501 4.44905 12.46 4.47663L10.7265 5.74746C10.6633 5.79412 10.5871 5.81961 10.5087 5.82032V5.82032Z" fill="#F8B5B5"/>
<path d="M10.4421 21.5786C10.394 21.5784 10.3464 21.5687 10.3021 21.55C10.2577 21.5313 10.2175 21.504 10.1836 21.4697C10.1497 21.4354 10.123 21.3948 10.1048 21.3501C10.0866 21.3054 10.0773 21.2575 10.0775 21.2092L10.1113 15.0627C10.1117 14.9655 10.1505 14.8725 10.2192 14.8041C10.2879 14.7356 10.3808 14.6973 10.4776 14.6975V14.6975C10.5257 14.6977 10.5732 14.7075 10.6176 14.7261C10.662 14.7448 10.7022 14.7721 10.7361 14.8064C10.7699 14.8407 10.7967 14.8814 10.8149 14.9261C10.8331 14.9708 10.8424 15.0186 10.8422 15.0669L10.8084 21.2126C10.808 21.3098 10.7692 21.4029 10.7005 21.4715C10.6319 21.5401 10.539 21.5786 10.4421 21.5786Z" fill="#F8B5B5"/>
<path d="M8.75253 20.1857C8.67509 20.1862 8.59951 20.1619 8.5367 20.1164C8.47389 20.071 8.4271 20.0067 8.40306 19.9328C8.37902 19.8589 8.37899 19.7792 8.40297 19.7053C8.42695 19.6314 8.47369 19.567 8.53647 19.5215L10.27 18.2507C10.3327 18.205 10.4082 18.1804 10.4856 18.1804C10.5631 18.1804 10.6386 18.205 10.7013 18.2507L12.3892 19.4749C12.4322 19.5015 12.4691 19.5367 12.4979 19.5783C12.5266 19.6199 12.5465 19.667 12.5563 19.7167C12.566 19.7664 12.5655 19.8176 12.5546 19.867C12.5437 19.9165 12.5228 19.9631 12.4932 20.0041C12.4635 20.0451 12.4257 20.0794 12.3822 20.105C12.3387 20.1307 12.2904 20.147 12.2403 20.153C12.1902 20.159 12.1394 20.1545 12.0911 20.1399C12.0428 20.1253 11.9981 20.1008 11.9596 20.068L10.4894 19.0005L8.97027 20.1154C8.90703 20.1616 8.83072 20.1862 8.75253 20.1857V20.1857Z" fill="#F8B5B5"/>
<path d="M18.4169 17.0222C18.3518 17.0223 18.288 17.0047 18.232 16.9714L12.9471 13.8697C12.9055 13.8453 12.8691 13.813 12.84 13.7745C12.8109 13.736 12.7896 13.6922 12.7774 13.6455C12.7652 13.5987 12.7622 13.55 12.7688 13.5022C12.7753 13.4543 12.7911 13.4082 12.8154 13.3665C12.8397 13.3247 12.8719 13.2882 12.9102 13.259C12.9486 13.2298 12.9922 13.2084 13.0388 13.1961C13.0853 13.1839 13.1338 13.1809 13.1815 13.1875C13.2292 13.194 13.2752 13.2099 13.3167 13.2343L18.6025 16.3368C18.6722 16.3775 18.7265 16.4402 18.7571 16.5151C18.7877 16.59 18.7928 16.6729 18.7716 16.751C18.7504 16.8291 18.7042 16.898 18.6401 16.947C18.5759 16.9961 18.4975 17.0225 18.4169 17.0222V17.0222Z" fill="#F8B5B5"/>
<path d="M16.3703 17.795C16.28 17.7947 16.193 17.761 16.1259 17.7004C16.0588 17.6398 16.0163 17.5564 16.0065 17.4663L15.7761 15.3229C15.7679 15.2457 15.7843 15.168 15.8228 15.1007C15.8613 15.0334 15.92 14.9801 15.9905 14.9484L17.8903 14.0944C17.9787 14.056 18.0785 14.0542 18.1683 14.0892C18.2581 14.1242 18.3305 14.1933 18.3698 14.2815C18.4092 14.3697 18.4124 14.4699 18.3788 14.5605C18.3451 14.6511 18.2772 14.7247 18.1899 14.7654L16.5332 15.5101L16.7349 17.3875C16.7401 17.4355 16.7359 17.484 16.7225 17.5304C16.709 17.5767 16.6866 17.6199 16.6565 17.6575C16.6264 17.6951 16.5892 17.7264 16.5471 17.7496C16.5049 17.7727 16.4586 17.7873 16.4108 17.7925C16.3973 17.7942 16.3838 17.795 16.3703 17.795Z" fill="#F8B5B5"/>
<path d="M13.1546 10.8545C13.0738 10.8545 12.9953 10.8277 12.9312 10.7782C12.8672 10.7288 12.8213 10.6595 12.8006 10.5811C12.7799 10.5027 12.7856 10.4196 12.8168 10.3448C12.848 10.27 12.903 10.2076 12.9732 10.1674L18.2902 7.12338C18.3746 7.07545 18.4744 7.06304 18.5679 7.08888C18.6613 7.11472 18.7408 7.17669 18.7888 7.26122C18.8368 7.34575 18.8495 7.44595 18.8241 7.53985C18.7986 7.63375 18.7372 7.7137 18.6531 7.76218L13.3361 10.8062C13.2808 10.838 13.2183 10.8547 13.1546 10.8545V10.8545Z" fill="#F8B5B5"/>
<path d="M10.5551 3.66035e-06C10.3815 0.00067336 10.212 0.0529676 10.0679 0.150284C9.92391 0.247601 9.81182 0.385576 9.74584 0.54679C9.67986 0.708004 9.66295 0.885228 9.69723 1.05609C9.73151 1.22694 9.81545 1.38378 9.93845 1.50678C10.0615 1.62979 10.218 1.71345 10.3883 1.7472C10.5587 1.78096 10.7352 1.7633 10.8955 1.69645C11.0558 1.6296 11.1929 1.51655 11.2893 1.37159C11.3856 1.22663 11.4371 1.05625 11.4371 0.881958C11.437 0.765884 11.4141 0.65097 11.3697 0.543796C11.3253 0.436621 11.2602 0.33929 11.1783 0.257371C11.0964 0.175451 10.9992 0.110553 10.8923 0.066391C10.7853 0.0222287 10.6708 -0.000330579 10.5551 3.66035e-06Z" fill="#F8B5B5"/>
<path d="M10.4422 22.2361C10.2684 22.2361 10.0985 22.2878 9.95398 22.3848C9.80948 22.4817 9.69687 22.6195 9.6304 22.7807C9.56392 22.9419 9.54657 23.1193 9.58054 23.2904C9.61451 23.4615 9.69827 23.6187 9.82123 23.742C9.94418 23.8653 10.1008 23.9492 10.2713 23.9831C10.4418 24.0171 10.6185 23.9995 10.779 23.9326C10.9395 23.8657 11.0767 23.7526 11.1731 23.6074C11.2695 23.4623 11.3209 23.2917 11.3208 23.1172C11.3205 22.8834 11.2279 22.6593 11.0631 22.4941C10.8984 22.3289 10.675 22.2361 10.4422 22.2361Z" fill="#F8B5B5"/>
<path d="M20.5006 16.8446C20.299 16.7278 20.0594 16.6961 19.8346 16.7565C19.6097 16.8169 19.4179 16.9643 19.3013 17.1665C19.2142 17.3175 19.1736 17.4911 19.1848 17.6652C19.196 17.8393 19.2583 18.0062 19.364 18.1448C19.4697 18.2833 19.614 18.3873 19.7786 18.4435C19.9431 18.4997 20.1206 18.5056 20.2885 18.4605C20.4565 18.4155 20.6073 18.3214 20.7219 18.1902C20.8366 18.0591 20.9099 17.8967 20.9326 17.7237C20.9553 17.5507 20.9264 17.3748 20.8495 17.2183C20.7726 17.0618 20.6511 16.9318 20.5006 16.8446V16.8446Z" fill="#F8B5B5"/>
<path d="M19.8913 7.341C19.9658 7.36122 20.0427 7.37148 20.12 7.3715C20.2736 7.37151 20.4245 7.33058 20.5572 7.25289C20.7336 7.15186 20.8696 6.99256 20.9421 6.80212C21.0146 6.61168 21.0191 6.40189 20.9548 6.20851C20.8905 6.01513 20.7613 5.85012 20.5894 5.74161C20.4175 5.6331 20.2134 5.58781 20.0119 5.61344C19.8104 5.63907 19.624 5.73406 19.4845 5.88219C19.3449 6.03033 19.2609 6.22246 19.2467 6.42583C19.2324 6.62921 19.2889 6.83124 19.4065 6.9975C19.524 7.16376 19.6953 7.28396 19.8913 7.33761V7.341Z" fill="#F8B5B5"/>
<path d="M18.1172 9.97605C18.0663 9.97603 18.016 9.96536 17.9695 9.9447L16.0047 9.07292C15.934 9.04152 15.8749 8.98849 15.8359 8.9214C15.797 8.8543 15.7801 8.77657 15.7878 8.69929L16.0013 6.62107C16.0141 6.52639 16.063 6.4404 16.1377 6.3813C16.2125 6.3222 16.3073 6.29463 16.4019 6.30443C16.4966 6.31423 16.5837 6.36063 16.6449 6.4338C16.7061 6.50698 16.7365 6.60118 16.7297 6.69647L16.544 8.50867L18.2649 9.27116C18.3417 9.30523 18.4045 9.36476 18.4429 9.43979C18.4812 9.51482 18.4926 9.60078 18.4753 9.68328C18.458 9.76578 18.413 9.8398 18.3478 9.89295C18.2826 9.9461 18.2012 9.97514 18.1172 9.9752V9.97605Z" fill="#F8B5B5"/>
</g>
<defs>
<clipPath id="clip0_2_192">
<rect width="11" height="24" fill="white"/>
</clipPath>
<clipPath id="clip1_2_192">
<rect width="11" height="24" fill="white" transform="translate(10)"/>
</clipPath>
</defs>
</svg>
